<?xml version="1.0" encoding="UTF-8" standalone="no"?><!-- Generator: Gravit.io --><svg xmlns="http://www.w3.org/2000/svg" xmlns:xlink="http://www.w3.org/1999/xlink" style="isolation:isolate" viewBox="0 0 1000 1000" width="1000pt" height="1000pt"><defs><clipPath id="_clipPath_h7mAOwKMPkIFJvPu0DyvQ5UKAPQ1cTtf"><rect width="1000" height="1000"/></clipPath></defs><g clip-path="url(#_clipPath_h7mAOwKMPkIFJvPu0DyvQ5UKAPQ1cTtf)"><circle vector-effect="non-scaling-stroke" cx="500.0000000000001" cy="499.99999999999994" r="500" fill="rgb(255,255,255)"/><path d=" M 838.136 248.362 C 828.655 218.546 815.806 197.198 815.262 196.3 C 813.155 192.828 808.817 191.021 804.888 191.923 C 803.87 192.155 779.606 197.818 751.616 211.797 C 713.829 230.663 687.434 255.848 675.274 284.619 C 665.152 308.579 663.698 337.87 670.88 370.23 C 655.583 353.147 638.376 338.203 619.619 325.622 C 613.891 314.307 598.747 286.449 575.071 257.334 C 567.273 247.749 552.273 259.778 560.151 269.459 C 576.105 289.081 588.113 308.379 595.623 321.637 L 508.053 304.566 L 424.854 191.081 C 432.933 191.194 441.039 191.975 449.106 193.557 C 474.681 198.563 499.942 211.589 524.203 232.265 C 533.708 240.368 546.052 225.62 536.672 217.629 C 509.872 194.79 481.654 180.339 452.799 174.687 C 408.752 166.068 357.379 177.383 304.22 207.423 C 264.599 229.813 238.103 254.406 236.998 255.44 C 233.453 258.752 232.888 264.768 235.856 268.637 C 239.741 276.608 254.465 305.363 278.974 336.32 C 293.421 354.573 308.658 370.194 324.419 383.031 C 319.941 386.784 315.583 390.709 311.365 394.839 C 288.839 416.872 271.592 442.863 260.269 471.277 C 250.259 496.383 244.876 523.391 244.576 551.229 C 244.079 596.75 257.269 640.653 282.727 678.199 C 307.596 714.872 342.363 743.03 383.266 759.624 C 394.713 764.259 401.951 746.455 390.496 741.808 C 375.676 735.796 361.753 728.094 348.912 718.934 C 350.554 709.825 354.363 677.045 332.59 643.112 C 329.542 638.366 338.654 619.725 344.093 608.59 C 349.709 597.114 355.505 585.25 358.212 574.079 C 361.088 562.211 357.852 552.25 348.86 545.261 C 342.259 540.13 333.619 537.474 326.005 535.131 C 321.058 533.609 315.451 531.887 313.448 530.216 C 309.323 526.76 302.586 513.987 297.17 503.729 C 291.162 492.35 285.443 481.519 279.603 474.85 C 292.744 443.64 313.853 416.023 340.288 394.895 C 364.437 411.345 391.998 422.696 421.293 424.995 C 387.319 451.319 376.329 484.936 392.038 517.227 C 410.382 554.934 448.141 548.91 481.454 543.602 C 487.217 542.681 493.181 541.732 498.893 541.019 C 501.036 540.751 501.681 541.335 502.113 541.716 C 509.407 548.205 509.191 579.194 509.035 601.825 C 508.822 633.127 508.622 662.694 520.282 677.875 C 526.23 685.613 534.605 689.57 544.422 689.57 C 550.306 689.57 556.699 688.152 563.404 685.277 C 592.398 672.86 622.539 635.49 617.941 605.922 C 613.923 580.071 611.264 562.992 617.532 549.226 C 623.328 536.485 637.339 524.689 664.932 509.637 C 668.236 524.517 669.902 539.998 669.73 555.879 C 669.141 610.088 647.472 660.824 608.72 698.735 C 565.41 741.103 504.541 762.028 444.328 755.391 C 432.059 754.061 429.94 773.15 442.225 774.504 C 508.133 781.762 574.771 758.851 622.162 712.481 C 664.591 670.973 688.311 615.435 688.956 556.083 C 689.813 477.39 649.435 407.672 587.969 367.51 C 600.67 358.454 610.13 350.623 615.377 346.077 C 637.787 362.155 657.666 381.962 674.204 405.036 C 713.906 460.443 729.651 527.985 718.548 595.236 C 695.617 734.058 564.028 828.357 425.182 805.418 C 357.928 794.311 299.029 757.686 259.328 702.279 C 219.622 646.877 203.877 579.326 214.984 512.08 C 216.979 499.98 198.021 496.804 196.019 508.948 C 184.071 581.265 201.009 653.902 243.695 713.482 C 286.388 773.054 349.733 812.443 422.05 824.391 C 437.174 826.887 452.315 828.12 467.351 828.12 C 524.187 828.12 579.477 810.473 626.592 776.711 C 686.18 734.018 725.573 670.685 737.513 598.368 C 746.265 545.377 739.492 492.213 718.456 444.141 C 728.165 441.277 744.687 435.718 762.783 426.682 C 800.562 407.816 826.961 382.63 839.118 353.86 C 851.286 325.081 850.945 288.6 838.136 248.362 L 838.136 248.362 Z  M 280.164 512.701 C 287.317 526.263 294.082 539.08 301.112 544.96 C 306.09 549.122 313.02 551.253 320.353 553.508 C 339.143 559.283 341.326 562.119 339.523 569.549 C 337.312 578.685 331.977 589.596 326.822 600.142 C 316.893 620.458 307.516 639.635 316.404 653.494 C 329.009 673.136 331.168 692.474 330.952 704.502 C 273.691 652.869 250.376 571.316 271.704 497.192 C 274.532 502.039 277.504 507.67 280.164 512.701 L 280.164 512.701 Z  M 745.288 323.779 L 717.967 257.571 C 731.261 245.138 746.686 235.781 759.823 229.193 C 771.014 223.577 781.66 219.379 790.2 216.403 L 745.288 323.779 Z  M 807.924 223.857 C 811.741 232.06 816.167 242.639 819.948 254.595 C 824.093 267.716 827.898 283.978 828.655 300.941 L 764.63 327.356 L 807.924 223.857 Z  M 692.981 292.105 C 695.817 285.4 699.482 279.184 703.716 273.444 L 734.818 348.805 L 706.908 415.543 C 702.987 407.223 698.369 396.297 694.451 383.884 C 686.589 359.031 679.956 322.926 692.981 292.105 Z  M 754.572 409.286 C 743.802 414.693 733.524 418.787 725.153 421.739 L 754.115 352.498 L 827.838 322.077 C 826.769 330.336 824.73 338.523 821.41 346.374 C 808.388 377.195 777.875 397.603 754.572 409.286 Z  M 407.919 403.815 C 404.522 403.15 401.17 402.337 397.865 401.412 L 504.264 323.419 L 591.874 340.494 C 559.959 365.64 482.291 418.386 407.919 403.815 L 407.919 403.815 Z  M 310.68 343.666 C 287.926 319.141 271.248 292.918 261.671 276.128 L 373.16 297.865 L 310.68 343.666 Z  M 330.371 215.402 L 377.017 279.027 L 264.807 257.154 C 278.934 245.999 302.253 229.253 330.371 215.402 Z  M 404.831 284.451 L 348.279 207.311 C 365.21 200.354 383.382 194.879 402.011 192.443 L 480.244 299.146 L 404.831 284.451 Z  M 398.847 302.871 L 478.582 318.412 L 376.248 393.421 C 356.951 384.509 339.583 371.696 324.387 357.453 L 398.847 302.871 Z  M 659.709 490.603 C 625.05 509.068 608.08 523.572 600.029 541.263 C 591.381 560.261 594.549 580.652 598.935 608.874 C 601.527 625.516 581.748 656.506 555.833 667.605 C 546.245 671.71 539.415 671.226 535.526 666.159 C 527.888 656.218 528.096 626.129 528.26 601.957 C 528.489 568.512 528.689 539.629 514.89 527.353 C 509.928 522.939 503.579 521.072 496.526 521.937 C 490.482 522.69 484.35 523.668 478.426 524.613 C 443.086 530.244 420.848 532.5 409.329 508.816 C 390.664 470.456 428.446 442.042 445.557 431.608 C 449.042 429.485 452.274 426.982 455.278 424.194 C 496.634 419.252 535.71 401.508 570.533 379.282 C 612.285 404.227 644.336 443.704 659.709 490.603 L 659.709 490.603 Z " fill="rgb(156,204,101)"/></g></svg>